<svg width="200" height="200" viewBox="0 0 200 200" fill="lightgreen" xmlns="http://www.w3.org/2000/svg">
<path d="M171.199 74.6845L125.323 28.8061C124.113 27.5958 122.53 27 120.948 27C119.365 27 117.783 27.5958 116.573 28.8061L86.5785 58.8207C84.3071 58.56 82.017 58.4483 79.727 58.4483C66.0984 58.4483 52.4698 62.9356 41.2802 71.9102C38.413 74.2004 38.1895 78.5015 40.7775 81.1083L74.6069 114.94L34.5031 155.009C34.0117 155.497 33.7084 156.144 33.6467 156.834L33.0137 163.76C32.8461 165.51 34.2425 167 35.974 167C36.0671 167 36.1602 167 36.2532 166.981L43.1792 166.348C43.8681 166.292 44.5198 165.976 45.0038 165.492L85.1077 125.385L118.937 159.217C120.147 160.427 121.73 161.023 123.312 161.023C125.118 161.023 126.906 160.241 128.135 158.714C138.617 145.625 142.973 129.24 141.205 113.394L171.199 83.3985C173.6 81.0152 173.6 77.1051 171.199 74.6845Z" />
</svg>
