<svg width="200" height="200" viewBox="0 0 200 200" fill="lightgreen" xmlns="http://www.w3.org/2000/svg">
<path d="M29.2715 149.243C29.2717 161.249 39.0056 170.982 51.0117 170.982H85.0303V182.255H51.0117C32.78 182.255 18.0002 167.475 18 149.243V112.607H29.2715V149.243ZM182.255 149.243C182.255 167.475 167.475 182.255 149.243 182.255H114.017V170.982H149.243C161.249 170.982 170.982 161.249 170.982 149.243V112.607H182.255V149.243ZM85.0303 29.2715H51.0117C39.0056 29.2717 29.2717 39.0056 29.2715 51.0117V83.2188H18V51.0117C18.0002 32.78 32.78 18.0003 51.0117 18H85.0303V29.2715ZM149.243 18C167.475 18.0002 182.255 32.78 182.255 51.0117V83.2188H170.982V51.0117C170.982 39.0056 161.249 29.2717 149.243 29.2715H114.017V18H149.243Z" />
<path d="M53.734 150.136C51.8687 150.114 50.3617 148.607 50.3401 146.742L49.8365 103.263C49.8009 100.185 53.5215 98.6183 55.6983 100.795L99.6807 144.777C101.857 146.954 100.291 150.675 97.2128 150.639L53.734 150.136Z" />
<path d="M146.742 50.3404C148.607 50.362 150.114 51.869 150.136 53.7343L150.639 97.2131C150.675 100.291 146.954 101.858 144.778 99.681L100.795 55.6986C98.6183 53.5218 100.185 49.8012 103.263 49.8368L146.742 50.3404Z" />
<path d="M84.5095 136.434L64.4688 116.393L119.852 61.0092L139.893 81.0499L84.5095 136.434Z" />
</svg>
